<svg width="356" height="480" viewBox="0 0 356 480" fill="none" xmlns="http://www.w3.org/2000/svg">
<path d="M201.12 97.92C222.24 97.92 239.04 101.12 251.52 107.52C266.56 115.2 278.08 125.76 286.08 139.2C294.4 152.64 298.56 167.68 298.56 184.32C298.56 200 294.4 214.56 286.08 228C277.76 241.12 266.4 251.52 252 259.2C269.28 265.28 283.84 275.84 295.68 290.88C307.52 305.92 313.44 322.88 313.44 341.76C313.44 358.4 309.12 373.76 300.48 387.84C292.16 401.6 280.96 412.48 266.88 420.48C259.84 424.32 252 427.2 243.36 429.12C234.72 431.04 223.2 432 208.8 432H60.96V97.92H201.12Z" fill="#FFB62E"/>
<circle cx="266" cy="119" r="50" fill="#FF6237"/>
</svg>
