<svg width="1186" height="400" viewBox="0 0 1186 400" fill="none" xmlns="http://www.w3.org/2000/svg">
<g clip-path="url(#clip0_42_277)">
<path d="M426.284 273L450.431 127.545H513.5C524.579 127.545 533.646 129.037 540.701 132.02C547.803 135.003 552.822 139.217 555.758 144.662C558.741 150.107 559.617 156.523 558.386 163.909C557.439 169.212 555.403 174.065 552.278 178.469C549.2 182.825 545.294 186.518 540.559 189.548C535.872 192.531 530.64 194.591 524.863 195.727L524.579 197.148C530.829 197.337 536.274 198.9 540.914 201.835C545.554 204.723 548.964 208.748 551.142 213.909C553.32 219.023 553.84 224.989 552.704 231.807C551.378 239.761 548.135 246.84 542.974 253.043C537.813 259.245 531.113 264.122 522.875 267.673C514.636 271.224 505.261 273 494.75 273H426.284ZM471.17 241.466H489.636C496.17 241.466 501.307 240.211 505.048 237.702C508.836 235.192 511.085 231.523 511.795 226.693C512.363 223.284 512.079 220.396 510.943 218.028C509.806 215.661 507.889 213.862 505.19 212.631C502.491 211.4 499.106 210.784 495.034 210.784H476L471.17 241.466ZM480.261 186.352H496.454C499.863 186.352 502.988 185.808 505.829 184.719C508.67 183.63 511.014 182.044 512.86 179.96C514.707 177.877 515.867 175.367 516.34 172.432C517.051 167.886 515.962 164.43 513.073 162.062C510.232 159.695 506.397 158.511 501.568 158.511H484.806L480.261 186.352ZM608.718 274.989C596.881 274.989 587.127 272.645 579.457 267.957C571.834 263.223 566.483 256.641 563.406 248.213C560.328 239.738 559.713 229.913 561.559 218.739C563.406 207.564 567.265 197.763 573.136 189.335C579.007 180.86 586.559 174.278 595.792 169.591C605.025 164.856 615.584 162.489 627.468 162.489C639.258 162.489 648.964 164.856 656.588 169.591C664.258 174.278 669.632 180.86 672.71 189.335C675.835 197.763 676.474 207.564 674.627 218.739C672.781 229.913 668.898 239.738 662.98 248.213C657.061 256.641 649.485 263.223 640.252 267.957C631.067 272.645 620.555 274.989 608.718 274.989ZM613.548 246.011C616.957 246.011 620.058 244.899 622.852 242.673C625.693 240.448 628.107 237.276 630.096 233.156C632.132 229.037 633.624 224.136 634.571 218.455C635.518 212.725 635.66 207.825 634.997 203.753C634.334 199.634 632.961 196.461 630.877 194.236C628.794 192.01 626.048 190.898 622.639 190.898C619.23 190.898 616.105 192.01 613.264 194.236C610.423 196.461 608.008 199.634 606.019 203.753C604.031 207.825 602.563 212.725 601.616 218.455C600.669 224.136 600.503 229.037 601.119 233.156C601.782 237.276 603.155 240.448 605.238 242.673C607.369 244.899 610.139 246.011 613.548 246.011ZM756.139 225.273L766.366 163.909H805.571L787.389 273H750.173L753.582 252.261H752.446C749.084 259.222 744.065 264.667 737.389 268.597C730.76 272.479 723.374 274.42 715.23 274.42C707.607 274.42 701.238 272.669 696.125 269.165C691.011 265.661 687.389 260.831 685.258 254.676C683.127 248.521 682.701 241.466 683.98 233.511L695.627 163.909H734.832L724.605 225.273C723.8 230.67 724.486 234.908 726.664 237.986C728.89 241.063 732.464 242.602 737.389 242.602C740.656 242.602 743.591 241.916 746.196 240.543C748.847 239.122 751.025 237.134 752.73 234.577C754.482 231.973 755.618 228.871 756.139 225.273ZM853.044 211.636L842.817 273H803.612L821.794 163.909H859.01L855.601 184.648H856.737C860.194 177.687 865.236 172.266 871.865 168.384C878.541 164.454 885.904 162.489 893.953 162.489C901.671 162.489 908.087 164.241 913.201 167.744C918.314 171.248 921.936 176.078 924.067 182.233C926.198 188.388 926.576 195.443 925.203 203.398L913.556 273H874.351L884.578 211.636C885.478 206.239 884.815 202.001 882.59 198.923C880.412 195.846 876.813 194.307 871.794 194.307C868.622 194.307 865.71 195.017 863.058 196.438C860.454 197.811 858.276 199.799 856.524 202.403C854.82 204.96 853.66 208.038 853.044 211.636ZM980.898 274.989C969.061 274.989 959.307 272.645 951.637 267.957C943.966 263.223 938.592 256.641 935.514 248.213C932.437 239.738 931.845 229.913 933.739 218.739C935.538 207.564 939.373 197.763 945.245 189.335C951.163 180.86 958.739 174.278 967.972 169.591C977.252 164.856 987.811 162.489 999.648 162.489C1010.35 162.489 1019.27 164.43 1026.42 168.312C1033.62 172.148 1038.76 177.593 1041.84 184.648C1044.96 191.655 1045.77 199.894 1044.25 209.364H1007.89C1008.31 203.682 1007.39 199.326 1005.12 196.295C1002.89 193.265 999.648 191.75 995.387 191.75C991.883 191.75 988.663 192.744 985.727 194.733C982.839 196.674 980.353 199.634 978.27 203.611C976.234 207.541 974.743 212.489 973.796 218.455C972.849 224.42 972.73 229.392 973.441 233.369C974.198 237.299 975.666 240.259 977.844 242.247C980.069 244.188 982.887 245.159 986.296 245.159C989.231 245.159 991.93 244.496 994.392 243.17C996.902 241.797 999.056 239.809 1000.86 237.205C1002.7 234.553 1004.1 231.333 1005.05 227.545H1041.41C1039.61 237.205 1035.99 245.585 1030.54 252.688C1025.1 259.79 1018.16 265.282 1009.73 269.165C1001.31 273.047 991.693 274.989 980.898 274.989ZM1097.9 274.989C1086.26 274.989 1076.6 272.763 1068.93 268.312C1061.26 263.814 1055.86 257.375 1052.73 248.994C1049.61 240.566 1049.04 230.481 1051.03 218.739C1052.92 207.47 1056.83 197.621 1062.75 189.193C1068.71 180.765 1076.22 174.207 1085.26 169.52C1094.35 164.832 1104.53 162.489 1115.8 162.489C1124.04 162.489 1131.26 163.767 1137.46 166.324C1143.71 168.881 1148.8 172.598 1152.73 177.474C1156.66 182.351 1159.31 188.246 1160.69 195.159C1162.11 202.025 1162.11 209.79 1160.69 218.455L1159.27 227.545H1061.82L1065.23 205.955H1126.6C1127.07 202.83 1126.76 200.083 1125.67 197.716C1124.63 195.301 1122.95 193.431 1120.63 192.105C1118.36 190.732 1115.61 190.045 1112.39 190.045C1109.17 190.045 1106.14 190.732 1103.3 192.105C1100.51 193.478 1098.12 195.396 1096.13 197.858C1094.19 200.32 1092.88 203.208 1092.22 206.523L1087.96 229.25C1087.39 232.754 1087.6 235.879 1088.6 238.625C1089.59 241.371 1091.32 243.526 1093.78 245.088C1096.25 246.651 1099.42 247.432 1103.3 247.432C1105.95 247.432 1108.46 247.077 1110.83 246.366C1113.24 245.609 1115.37 244.52 1117.22 243.099C1119.12 241.632 1120.63 239.856 1121.77 237.773H1157.56C1155.01 245.348 1150.96 251.93 1145.42 257.517C1139.92 263.057 1133.15 267.366 1125.1 270.443C1117.1 273.473 1108.04 274.989 1097.9 274.989Z" fill="#F3F1EE"/>
<path d="M329.507 248.958C332.614 272.415 360.698 281.404 373.692 261.63C383.906 246.085 391.703 230.476 396.637 215.693C401.57 200.91 403.544 187.244 402.444 175.475C401.345 163.706 397.195 154.063 390.231 147.099C383.266 140.135 373.624 135.984 361.855 134.885C350.085 133.786 336.419 135.76 321.637 140.693C306.854 145.627 291.245 153.423 275.699 163.638C260.154 173.853 244.978 186.286 231.036 200.228L298.996 209.23C314.16 211.239 326.091 223.17 328.1 238.334L329.507 248.958Z" fill="#37AB49"/>
<path d="M132.757 151.306C129.649 127.849 101.566 118.86 88.5722 138.634C78.3572 154.179 70.5604 169.788 65.627 184.571C60.6935 199.354 58.7201 213.02 59.8192 224.789C60.9183 236.558 65.0686 246.201 72.033 253.165C78.9974 260.129 88.6395 264.28 100.409 265.379C112.178 266.478 125.844 264.504 140.627 259.571C155.409 254.637 171.019 246.841 186.564 236.626C202.11 226.411 217.286 213.978 231.227 200.036L163.268 191.034C148.104 189.025 136.173 177.094 134.164 161.93L132.757 151.306Z" fill="#EC5353"/>
</g>
<defs>
<clipPath id="clip0_42_277">
<rect width="1186" height="400" fill="white"/>
</clipPath>
</defs>
</svg>
