<svg width="400" height="400" viewBox="0 0 400 400" fill="none" xmlns="http://www.w3.org/2000/svg">
<g clip-path="url(#clip0_42_260)">
<path d="M298.508 248.958C301.615 272.415 329.698 281.404 342.692 261.63C352.907 246.085 360.704 230.476 365.637 215.693C370.571 200.91 372.544 187.244 371.445 175.475C370.346 163.706 366.196 154.063 359.231 147.099C352.267 140.135 342.625 135.984 330.855 134.885C319.086 133.786 305.42 135.76 290.637 140.693C275.855 145.627 260.245 153.423 244.7 163.638C229.155 173.853 213.978 186.286 200.037 200.228L267.996 209.23C283.16 211.239 295.092 223.17 297.1 238.334L298.508 248.958Z" fill="#37AB49"/>
<path d="M101.757 151.306C98.6498 127.849 70.5664 118.86 57.5726 138.634C47.3577 154.179 39.5609 169.788 34.6275 184.571C29.694 199.354 27.7205 213.02 28.8197 224.789C29.9188 236.558 34.0691 246.201 41.0335 253.165C47.9978 260.129 57.64 264.28 69.4094 265.379C81.1787 266.478 94.8448 264.504 109.627 259.571C124.41 254.637 140.02 246.841 155.565 236.626C171.11 226.411 186.287 213.978 200.228 200.036L132.268 191.034C117.104 189.025 105.173 177.094 103.164 161.93L101.757 151.306Z" fill="#EC5353"/>
</g>
<defs>
<clipPath id="clip0_42_260">
<rect width="400" height="400" fill="white"/>
</clipPath>
</defs>
</svg>
